<svg xmlns="http://www.w3.org/2000/svg" width="213" height="56" viewBox="0 0 212 56">
    <path style="stroke:none;fill-rule:nonzero;fill:#000;fill-opacity:1" d="M19.984 6.012c-3.859 2.402-8.98 3.886-13.539 3.886h-4.21l.417 5.305C3.285 22.63 4.27 26.371 7.426 33.02c2.875 6.082 8.629 13.082 12.98 15.84 2.313 1.413 2.524 1.413 4.278.28 9.89-6.574 16.91-19.511 17.613-32.593l.348-6.438-5.333-.351c-4.207-.285-6.171-.848-10.101-2.828l-4.773-2.477Zm6.102 5.586c1.824.918 5.336 2.12 7.652 2.543l4.348.847-.352 2.973c-1.054 8.41-5.683 17.887-11.718 23.758l-3.227 3.11V33.94h-4.7l.563-3.394c.352-1.84.493-4.668.211-6.367-.351-2.332-.14-3.32.77-4.383 2.664-2.969 3.156-1.906 3.156 6.363v7.781h4l-.07-6.859c-.07-6.719-.14-6.93-1.965-7.992-1.125-.563-1.965-1.41-1.965-1.77 0-.422-1.965-.773-4.418-.847-2.387-.07-5.125-.422-6.105-.774-1.614-.64-1.473-.71 2.105-1.77 2.106-.636 4.844-1.769 5.965-2.546 1.187-.774 2.172-1.414 2.242-1.414.07-.07 1.613.71 3.508 1.629ZM50.852 24.465V36.91l7.09-.281c6.523-.215 7.156-.356 8.488-1.98 1.12-1.419 1.332-2.477 1.12-5.59-.206-2.118-.698-4.028-1.05-4.098-.492-.211-.422-1.063.281-2.402 1.403-2.832.84-8.348-.914-9.618-.84-.64-3.578-.921-8.137-.921h-6.878Zm10.523-5.375c0 2.687-.14 2.828-2.102 2.828-1.964 0-2.105-.14-2.105-2.828 0-2.688.14-2.828 2.105-2.828 1.961 0 2.102.14 2.102 2.828Zm0 10.254c0 3.039-.07 3.183-2.102 3.183-2.035 0-2.105-.144-2.105-3.183 0-3.043.07-3.184 2.105-3.184 2.032 0 2.102.14 2.102 3.184ZM74.004 24.39v12.38h14.035v-4.95H80.32v-19.8h-6.316ZM92.95 24.39v12.38h6.316V12.02h-6.317ZM106.984 13.434c-1.265 1.273-1.406 2.336-1.406 10.816 0 11.879.211 12.164 8.418 12.164 6.738 0 7.719-.707 7.719-5.375v-3.46h-3.156c-3.157 0-3.157 0-3.157 2.472 0 2.191-.21 2.476-1.757 2.476h-1.75V16.262h1.75c1.476 0 1.757.355 1.757 2.12 0 2.052.137 2.126 3.157 2.126h3.156V17.39c0-4.38-1.543-5.371-8.211-5.371-4.207 0-5.399.28-6.52 1.414ZM128.027 24.39v12.38h14.735v-4.95h-8.418v-5.66h3.511c3.434 0 3.504-.07 3.504-2.12 0-2.052-.07-2.122-3.504-2.122h-3.511v-5.656h8.418V12.02h-14.735ZM148.379 24.39v12.38h5.61v-6.508c0-4.102.28-6.223.632-5.797.422.355 1.754 3.183 3.086 6.293 2.316 5.515 2.457 5.656 4.914 5.87l2.594.212V12.02h-5.543l-.211 6.507-.211 6.575-2.734-6.575-2.739-6.507h-5.398ZM173.285 13.012c-1.894 1.34-2.387 8.906-.773 11.379.984 1.558 1.683 1.77 4.984 1.77h3.856v2.827c0 2.547-.141 2.832-1.754 2.832-1.266 0-1.75-.355-1.75-1.418 0-1.199-.493-1.414-3.23-1.414h-3.298l.422 2.621c.7 4.098 1.895 4.805 8.137 4.805 7.226 0 7.789-.496 7.789-7 0-3.043-.352-5.445-.844-5.941-.488-.493-2.246-.844-4-.844-4.281 0-5.117-.711-4.84-3.61.141-1.84.559-2.472 1.825-2.617 1.191-.21 1.543.145 1.543 1.207 0 1.27.421 1.48 3.156 1.48 3.16 0 3.16 0 3.16-2.401 0-3.536-1.965-4.668-8.07-4.668-3.086 0-5.473.351-6.313.992ZM193.98 24.39v12.38h14.735v-4.95h-8.418v-5.66h3.508c3.437 0 3.504-.07 3.504-2.12 0-2.052-.067-2.122-3.504-2.122h-3.508v-5.656h8.418V12.02H193.98Zm0 0"/>
</svg>
